 <svg  version="1.0" xmlns="http://www.w3.org/2000/svg"  width="204.000000pt" height="281.000000pt" viewBox="0 0 204.000000 281.000000"  preserveAspectRatio="xMidYMid meet">  <g transform="translate(0.000000,281.000000) scale(0.100000,-0.100000)" fill="#ffffff" stroke="none"> <path d="M966 2684 c-14 -13 -16 -59 -16 -345 l0 -329 -254 0 c-224 0 -255 -2 -267 -17 -11 -13 -15 -87 -19 -351 l-5 -335 -84 -32 c-48 -18 -91 -41 -99 -53 -16 -24 -10 -37 49 -115 91 -120 189 -362 224 -552 10 -49 22 -101 29 -115 l12 -25 466 -3 c437 -2 468 -1 476 15 5 10 17 61 27 113 38 206 131 434 234 575 75 102 72 111 -55 160 l-94 37 0 332 c0 310 -1 334 -18 349 -16 15 -50 17 -265 17 l-247 0 0 323 c0 276 -2 326 -16 345 -18 26 -56 29 -78 6z m514 -1055 l0 -271 -67 38 c-195 107 -288 201 -363 363 -17 37 -85 39 -97 3 -32 -97 -107 -193 -210 -270 -63 -46 -191 -122 -206 -122 -4 0 -7 119 -7 265 l0 265 475 0 475 0 0 -271z m-530 -609 l0 -500 -167 2 -167 3 -17 77 c-38 177 -110 365 -187 492 -23 37 -42 71 -42 76 0 4 21 15 48 25 87 33 280 132 354 183 40 28 93 72 118 97 24 25 48 45 52 45 4 0 8 -225 8 -500z m305 345 c85 -56 221 -126 320 -165 33 -13 62 -25 64 -26 2 -2 -18 -37 -44 -79 -26 -42 -65 -116 -86 -165 -39 -91 -101 -291 -114 -367 l-7 -43 -164 0 -164 0 0 501 0 501 58 -52 c31 -28 93 -75 137 -105z"/> <path d="M1230 296 c-19 -8 -62 -26 -95 -40 -76 -32 -99 -32 -182 1 -60 24 -82 27 -178 27 -97 -1 -128 -5 -270 -43 -156 -42 -163 -43 -272 -37 -112 6 -113 6 -129 -19 -37 -57 35 -95 180 -95 55 0 116 11 233 41 87 22 192 43 234 46 68 5 87 2 173 -27 117 -40 158 -38 278 15 98 43 112 43 248 -8 117 -43 181 -52 257 -37 69 15 104 31 161 77 46 38 54 69 24 96 -26 24 -45 21 -95 -13 -98 -70 -180 -73 -327 -15 -108 42 -187 53 -240 31z"/> </g> </svg> 