 <svg  version="1.0" xmlns="http://www.w3.org/2000/svg"  width="84.000000pt" height="84.000000pt" viewBox="0 0 84.000000 84.000000"  preserveAspectRatio="xMidYMid meet">  <g transform="translate(0.000000,84.000000) scale(0.100000,-0.100000)" fill="#000000" stroke="none"> <path d="M407 834 c-4 -4 -7 -54 -7 -110 l0 -103 -82 -3 -83 -3 -3 -112 -3 -111 -29 -11 c-17 -5 -30 -14 -30 -20 0 -5 13 -31 30 -58 16 -26 38 -82 49 -123 l19 -75 152 0 152 0 19 75 c11 41 33 96 49 123 29 47 29 48 10 67 -11 11 -24 20 -30 20 -5 0 -11 49 -12 113 l-3 112 -82 3 -82 3 -3 106 c-3 98 -11 127 -31 107z m165 -339 c2 -47 0 -85 -3 -85 -9 0 -93 62 -107 79 -7 9 -17 26 -22 39 -12 28 -28 28 -39 -1 -13 -33 -126 -131 -134 -115 -1 2 -1 40 1 86 l4 82 148 0 149 0 3 -85z m-172 -195 l0 -160 -55 0 c-47 0 -55 3 -55 18 0 30 -37 130 -60 162 -20 29 -20 30 -3 36 42 13 125 60 145 81 12 13 23 23 25 23 2 0 3 -72 3 -160z m162 77 c60 -30 65 -35 52 -49 -18 -18 -64 -140 -64 -168 0 -17 -7 -20 -55 -20 l-55 0 0 162 0 162 28 -27 c15 -15 58 -42 94 -60z"/> <path d="M280 54 c-30 -8 -76 -14 -102 -15 -33 0 -48 -4 -48 -13 0 -24 50 -28 137 -10 70 14 91 14 128 4 38 -11 50 -10 85 4 36 14 44 15 76 1 20 -8 50 -15 66 -15 37 0 88 26 88 45 0 19 -12 19 -48 -2 -28 -16 -33 -16 -85 2 -49 16 -60 17 -96 5 -22 -7 -53 -10 -69 -7 -16 3 -40 8 -53 11 -13 3 -49 -2 -79 -10z"/> </g> </svg> 