 <svg  version="1.0" xmlns="http://www.w3.org/2000/svg"  width="84.000000pt" height="84.000000pt" viewBox="0 0 84.000000 84.000000"  preserveAspectRatio="xMidYMid meet">  <g transform="translate(0.000000,84.000000) scale(0.100000,-0.100000)" fill="#ffffff" stroke="none"> <path d="M380 725 l0 -64 -82 -3 -83 -3 -3 -112 -3 -111 -29 -11 c-17 -5 -30 -14 -30 -20 0 -5 13 -31 30 -58 16 -26 38 -82 49 -123 l19 -75 152 0 152 0 19 75 c11 41 33 96 49 123 29 47 29 48 10 67 -11 11 -24 20 -30 20 -5 0 -11 49 -12 113 l-3 112 -82 3 -83 3 0 64 c0 58 -2 65 -20 65 -18 0 -20 -7 -20 -65z m172 -190 c2 -47 0 -85 -3 -85 -9 0 -93 62 -107 79 -7 9 -17 26 -22 39 -5 12 -14 22 -20 22 -6 0 -14 -10 -19 -22 -12 -31 -109 -118 -131 -118 -3 0 -5 38 -5 85 l0 85 152 0 152 0 3 -85z m-172 -195 l0 -160 -55 0 c-47 0 -55 3 -55 18 0 30 -39 135 -61 165 -19 26 -19 28 -2 33 42 13 126 60 145 81 12 13 23 23 25 23 2 0 3 -72 3 -160z m162 77 c61 -30 66 -35 52 -49 -18 -18 -64 -139 -64 -168 0 -17 -7 -20 -55 -20 l-55 0 0 162 0 162 28 -27 c15 -14 57 -41 94 -60z"/> <path d="M260 95 c-30 -8 -77 -14 -103 -15 -41 0 -48 -3 -45 -17 5 -25 57 -28 140 -7 59 14 78 15 122 5 43 -11 57 -10 88 3 34 15 42 15 74 1 20 -8 50 -15 66 -15 37 0 88 26 88 45 0 19 -15 19 -46 -1 -23 -16 -29 -16 -84 1 -52 16 -65 16 -99 5 -22 -7 -53 -10 -69 -7 -16 3 -40 8 -53 11 -13 3 -49 -2 -79 -9z"/> </g> </svg> 